<svg width="40" height="40" viewBox="0 0 40 40" fill="none" xmlns="http://www.w3.org/2000/svg">
<circle cx="20" cy="20" r="20" fill="#1F2233"/>
<path d="M7.74703 27.3252L8.86301 27.9695L21.2955 6.43642L20.1795 5.79209L7.74703 27.3252Z" fill="#E535AB"/>
<path d="M32.3565 25.6049H7.49149V26.8935H32.3565V25.6049Z" fill="#E535AB"/>
<path d="M7.98348 26.3288L20.4206 33.5096L21.065 32.3937L8.62781 25.2129L7.98348 26.3288Z" fill="#E535AB"/>
<path d="M18.7877 7.61382L31.2248 14.7946L31.8691 13.6786L19.432 6.49784L18.7877 7.61382Z" fill="#E535AB"/>
<path d="M7.98696 13.6737L8.63129 14.7897L21.0684 7.60888L20.4241 6.49289L7.98696 13.6737Z" fill="#E535AB"/>
<path d="M18.563 6.43667L30.9955 27.9697L32.1114 27.3254L19.679 5.79234L18.563 6.43667Z" fill="#E535AB"/>
<path d="M9.76605 12.8192H8.47739V27.1808H9.76605V12.8192Z" fill="#E535AB"/>
<path d="M31.3783 12.8192H30.0897V27.1808H31.3783V12.8192Z" fill="#E535AB"/>
<path d="M19.6384 31.9894L20.2013 32.9642L31.0182 26.7188L30.4554 25.744L19.6384 31.9894Z" fill="#E535AB"/>
<path d="M33.0862 27.6C32.3409 28.8964 30.6796 29.3389 29.3832 28.5937C28.0868 27.8484 27.6443 26.1871 28.3895 24.8907C29.1348 23.5943 30.7961 23.1518 32.0925 23.897C33.3967 24.6501 33.8392 26.3036 33.0862 27.6Z" fill="#E535AB"/>
<path d="M11.4584 15.1093C10.7131 16.4057 9.05185 16.8482 7.75542 16.1029C6.459 15.3577 6.01651 13.6964 6.76176 12.4C7.50701 11.1036 9.16829 10.6611 10.4647 11.4063C11.7611 12.1593 12.2036 13.8129 11.4584 15.1093Z" fill="#E535AB"/>
<path d="M6.76954 27.6C6.02429 26.3036 6.46678 24.6501 7.7632 23.897C9.05963 23.1518 10.7132 23.5943 11.4662 24.8907C12.2114 26.1871 11.7689 27.8407 10.4725 28.5937C9.16831 29.3389 7.51479 28.8964 6.76954 27.6Z" fill="#E535AB"/>
<path d="M28.3973 15.1093C27.6521 13.8129 28.0946 12.1593 29.391 11.4063C30.6874 10.6611 32.3409 11.1036 33.0939 12.4C33.8392 13.6964 33.3967 15.3499 32.1003 16.1029C30.8039 16.8482 29.1426 16.4057 28.3973 15.1093Z" fill="#E535AB"/>
<path d="M19.9279 35.2C18.4296 35.2 17.2186 33.9889 17.2186 32.4907C17.2186 30.9924 18.4296 29.7814 19.9279 29.7814C21.4261 29.7814 22.6372 30.9924 22.6372 32.4907C22.6372 33.9812 21.4261 35.2 19.9279 35.2Z" fill="#E535AB"/>
<path d="M19.9279 10.2186C18.4296 10.2186 17.2186 9.00755 17.2186 7.50928C17.2186 6.01102 18.4296 4.79999 19.9279 4.79999C21.4261 4.79999 22.6372 6.01102 22.6372 7.50928C22.6372 9.00755 21.4261 10.2186 19.9279 10.2186Z" fill="#E535AB"/>
</svg>
