<svg width="47" height="47" viewBox="0 0 47 47" fill="none" xmlns="http://www.w3.org/2000/svg">
<circle cx="23.5" cy="23.5" r="23.5" fill="#1F2233"/>
<path d="M23.5808 39.48C23.1528 39.48 22.7277 39.3677 22.3525 39.1517L18.4428 36.837C17.8588 36.5104 18.1437 36.3949 18.3363 36.3284C19.1149 36.0557 19.273 35.9942 20.104 35.5222C20.1914 35.4724 20.3057 35.49 20.3951 35.5427L23.3987 37.3251C23.5072 37.3837 23.6611 37.3837 23.7616 37.3251L35.4729 30.5651C35.5813 30.5035 35.6517 30.3775 35.6517 30.2485V16.7344C35.6517 16.5995 35.5814 16.4793 35.4705 16.4119L23.764 9.65777C23.6555 9.59328 23.5119 9.59328 23.4034 9.65777L11.6992 16.4119C11.5857 16.4764 11.5136 16.6024 11.5136 16.7314V30.2455C11.5136 30.3745 11.584 30.4976 11.6954 30.5592L14.9024 32.4119C16.6437 33.2826 17.7078 32.2565 17.7078 31.2247V17.8864C17.7078 17.6959 17.8573 17.5493 18.0479 17.5493H19.5312C19.7159 17.5493 19.8683 17.6959 19.8683 17.8864V31.2305C19.8683 33.5522 18.6019 34.8861 16.4004 34.8861C15.7232 34.8861 15.1897 34.8861 13.7005 34.1532L10.6283 32.3826C9.86906 31.9429 9.40002 31.1221 9.40002 30.2455V16.7314C9.40002 15.852 9.86906 15.0312 10.6283 14.5973L22.3513 7.83439C23.093 7.41519 24.0779 7.41519 24.8137 7.83439L36.5221 14.6002C37.2784 15.037 37.7504 15.8549 37.7504 16.7344V30.2485C37.7504 31.125 37.2784 31.9429 36.5221 32.3826L24.8137 39.1455C24.4385 39.3624 24.0134 39.4738 23.5796 39.4738" fill="#689F63"/>
<path d="M27.1982 30.1679C22.074 30.1679 20.9996 27.8156 20.9996 25.8428C20.9996 25.6551 21.1508 25.5056 21.3387 25.5056H22.8514C23.0185 25.5056 23.1592 25.6273 23.1856 25.7923C23.4142 27.3337 24.0943 28.1111 27.1929 28.1111C29.6612 28.1111 30.7107 27.5536 30.7107 26.2447C30.7107 25.4913 30.4117 24.9314 26.5773 24.5561C23.3703 24.2395 21.3886 23.533 21.3886 20.968C21.3886 18.6052 23.382 17.1981 26.7209 17.1981C30.4703 17.1981 32.3289 18.4997 32.5634 21.2963C32.5722 21.3931 32.537 21.4869 32.4725 21.5572C32.408 21.6247 32.3171 21.6657 32.2233 21.6657H30.7019C30.5436 21.6657 30.4058 21.5543 30.3736 21.4019C30.0071 19.7808 29.1218 19.2619 26.7151 19.2619C24.0211 19.2619 23.7074 20.2 23.7074 20.9035C23.7074 21.7566 24.0767 22.0057 27.7118 22.4865C31.3116 22.9643 33.0207 23.6386 33.0207 26.1684C33.0207 28.7188 30.8924 30.1816 27.1812 30.1816L27.1982 30.1679ZM41.4458 15.8496H41.8386C42.161 15.8496 42.2226 15.6239 42.2226 15.492C42.2226 15.1461 41.9851 15.1461 41.8532 15.1461H41.4487L41.4458 15.8496ZM40.9679 14.7415H41.8386C42.1376 14.7415 42.7239 14.7415 42.7239 15.4099C42.7239 15.876 42.4249 15.9728 42.246 16.0314C42.5949 16.0548 42.6183 16.2835 42.6652 16.606C42.6887 16.8082 42.7268 17.1571 42.7972 17.2743H42.2607C42.246 17.1571 42.164 16.5122 42.164 16.477C42.1288 16.3333 42.079 16.263 41.9001 16.263H41.4575V17.2773H40.9679V14.7415ZM39.9214 16.0021C39.9214 17.0515 40.7686 17.9017 41.8093 17.9017C42.8587 17.9017 43.7059 17.034 43.7059 16.0021C43.7059 14.9497 42.847 14.1142 41.8063 14.1142C40.7803 14.1142 39.9185 14.938 39.9185 15.9991L39.9214 16.0021ZM44.0694 16.0079C44.0694 17.2509 43.0522 18.2652 41.8122 18.2652C40.581 18.2652 39.555 17.2626 39.555 16.0079C39.555 14.7298 40.6044 13.7507 41.8122 13.7507C43.0288 13.7507 44.0665 14.7327 44.0665 16.0079" fill="#689F63"/>
</svg>
