<svg width="47" height="47" viewBox="0 0 47 47" fill="none" xmlns="http://www.w3.org/2000/svg">
<circle cx="23.5" cy="23.5" r="23.5" fill="#1F2233"/>
<path d="M23.3329 6.26666C14.6051 6.26666 15.15 10.0668 15.15 10.0668L15.1597 14.0038H23.4885V15.1858H11.8516C11.8516 15.1858 6.26666 14.5499 6.26666 23.3916C6.26666 32.2336 11.1414 31.92 11.1414 31.92H14.0505V27.817C14.0505 27.817 13.8937 22.9227 18.8474 22.9227H27.1081C27.1081 22.9227 31.7493 22.998 31.7493 18.4192V10.8484C31.7493 10.8484 32.4542 6.26666 23.3329 6.26666ZM18.7404 8.91425C18.9372 8.91407 19.1321 8.95286 19.314 9.0284C19.4959 9.10394 19.6611 9.21474 19.8003 9.35447C19.9395 9.4942 20.0498 9.66011 20.1251 9.84271C20.2003 10.0253 20.2389 10.221 20.2388 10.4186C20.2389 10.6162 20.2003 10.8119 20.1251 10.9945C20.0498 11.1771 19.9395 11.343 19.8003 11.4828C19.6611 11.6225 19.4959 11.7333 19.314 11.8088C19.1321 11.8844 18.9372 11.9232 18.7404 11.923C18.5436 11.9232 18.3487 11.8844 18.1668 11.8088C17.9849 11.7333 17.8197 11.6225 17.6805 11.4828C17.5413 11.343 17.431 11.1771 17.3557 10.9945C17.2805 10.8119 17.2419 10.6162 17.2421 10.4186C17.2419 10.221 17.2805 10.0253 17.3557 9.84271C17.431 9.66011 17.5413 9.4942 17.6805 9.35447C17.8197 9.21474 17.9849 9.10394 18.1668 9.0284C18.3487 8.95286 18.5436 8.91407 18.7404 8.91425Z" fill="#387EB8"/>
<path d="M23.5804 40.6053C32.3083 40.6053 31.7633 36.8052 31.7633 36.8052L31.7536 32.8683H23.4247V31.6863H35.0616C35.0616 31.6863 40.6465 32.3222 40.6465 23.4802C40.6465 14.6384 35.7719 14.9519 35.7719 14.9519H32.8627V19.0548C32.8627 19.0548 33.0195 23.9491 28.0658 23.9491H19.8051C19.8051 23.9491 15.1639 23.8738 15.1639 28.4527V36.0236C15.1639 36.0236 14.4592 40.6053 23.5803 40.6053H23.5804ZM28.1729 37.958C27.9761 37.9581 27.7812 37.9194 27.5993 37.8438C27.4175 37.7683 27.2522 37.6575 27.1131 37.5177C26.9739 37.378 26.8635 37.2121 26.7883 37.0295C26.7131 36.8469 26.6744 36.6512 26.6746 36.4536C26.6744 36.256 26.713 36.0603 26.7883 35.8777C26.8635 35.695 26.9738 35.5291 27.113 35.3894C27.2522 35.2496 27.4174 35.1388 27.5993 35.0633C27.7812 34.9877 27.9761 34.9489 28.1729 34.9491C28.3698 34.9489 28.5647 34.9877 28.7465 35.0632C28.9284 35.1388 29.0937 35.2496 29.2328 35.3893C29.372 35.5291 29.4824 35.695 29.5576 35.8776C29.6328 36.0602 29.6715 36.2559 29.6713 36.4535C29.6715 36.6511 29.6328 36.8468 29.5576 37.0294C29.4824 37.212 29.372 37.3779 29.2328 37.5176C29.0937 37.6573 28.9284 37.7681 28.7465 37.8437C28.5647 37.9192 28.3698 37.958 28.1729 37.9578V37.958Z" fill="url(#paint1_linear)"/>
<defs>
<linearGradient id="paint0_linear" x1="9.57059" y1="9.35524" x2="26.676" y2="26.2222" gradientUnits="userSpaceOnUse">
<stop stop-color="#387EB8"/>
<stop offset="1" stop-color="#387EB8"/>
</linearGradient>
<linearGradient id="paint1_linear" x1="20.028" y1="20.23" x2="38.3939" y2="37.5224" gradientUnits="userSpaceOnUse">
<stop stop-color="#FFE052"/>
<stop offset="1" stop-color="#FFC331"/>
</linearGradient>
</defs>
</svg>
