<svg width="51" height="51" viewBox="0 0 51 51" fill="none" xmlns="http://www.w3.org/2000/svg">
<circle cx="25.5" cy="25.5" r="25.5" fill="#1F2233"/>
<path d="M43.52 25.1941C43.52 22.7616 40.4737 20.4563 35.8033 19.0267C36.8811 14.2664 36.402 10.4792 34.2913 9.26666C33.8048 8.98224 33.236 8.84751 32.6148 8.84751V10.5166C32.9591 10.5166 33.236 10.584 33.468 10.7112C34.486 11.295 34.9276 13.518 34.5833 16.3771C34.5009 17.0807 34.3662 17.8217 34.2015 18.5776C32.7345 18.2184 31.1328 17.9414 29.4487 17.7618C28.4383 16.3771 27.3904 15.1197 26.3351 14.0194C28.7751 11.7516 31.0654 10.5091 32.6223 10.5091V8.84003C30.564 8.84003 27.8695 10.307 25.145 12.8518C22.4206 10.322 19.7261 8.86997 17.6678 8.86997V10.5391C19.2171 10.5391 21.5149 11.774 23.955 14.0269C22.9071 15.1272 21.8592 16.3771 20.8638 17.7618C19.1722 17.9414 17.5705 18.2184 16.1035 18.5851C15.9313 17.8367 15.8041 17.1106 15.7143 16.4146C15.3625 13.5554 15.7966 11.3324 16.8071 10.7411C17.0316 10.6064 17.3235 10.5465 17.6678 10.5465V8.87745C17.0391 8.87745 16.4702 9.01218 15.9763 9.29659C13.8731 10.5091 13.4015 14.2889 14.4868 19.0342C9.83131 20.4713 6.8 22.7691 6.8 25.1941C6.8 27.6267 9.84628 29.9319 14.5167 31.3615C13.4389 36.1218 13.918 39.9091 16.0287 41.1216C16.5152 41.406 17.084 41.5407 17.7127 41.5407C19.771 41.5407 22.4655 40.0737 25.1899 37.5289C27.9144 40.0588 30.6089 41.5108 32.6672 41.5108C33.2959 41.5108 33.8647 41.3761 34.3587 41.0917C36.4619 39.8791 36.9335 36.0994 35.8482 31.354C40.4887 29.9245 43.52 27.6192 43.52 25.1941ZM33.7749 20.2018C33.498 21.1673 33.1537 22.1628 32.7645 23.1583C32.4576 22.5595 32.1358 21.9607 31.784 21.362C31.4397 20.7632 31.0729 20.1794 30.7062 19.6105C31.769 19.7677 32.7944 19.9623 33.7749 20.2018ZM30.3469 28.173C29.7631 29.1835 29.1643 30.1415 28.5431 31.0322C27.4279 31.1295 26.2977 31.1819 25.16 31.1819C24.0298 31.1819 22.8996 31.1295 21.7919 31.0397C21.1706 30.149 20.5644 29.1984 19.9806 28.1955C19.4117 27.215 18.8953 26.2195 18.4238 25.2166C18.8878 24.2136 19.4117 23.2107 19.9731 22.2302C20.5569 21.2197 21.1557 20.2617 21.7769 19.371C22.8921 19.2737 24.0223 19.2213 25.16 19.2213C26.2902 19.2213 27.4204 19.2737 28.5281 19.3635C29.1494 20.2542 29.7556 21.2048 30.3394 22.2077C30.9083 23.1882 31.4247 24.1837 31.8962 25.1866C31.4247 26.1896 30.9083 27.1925 30.3469 28.173ZM32.7645 27.2C33.1686 28.203 33.5129 29.2059 33.7974 30.1789C32.8169 30.4185 31.784 30.6205 30.7137 30.7777C31.0804 30.2014 31.4472 29.6101 31.7915 29.0038C32.1358 28.4051 32.4576 27.7988 32.7645 27.2ZM25.175 35.1862C24.4789 34.4677 23.7828 33.6668 23.0942 32.7911C23.7678 32.821 24.4564 32.8435 25.1525 32.8435C25.8561 32.8435 26.5522 32.8285 27.2333 32.7911C26.5596 33.6668 25.8636 34.4677 25.175 35.1862ZM19.6063 30.7777C18.5435 30.6205 17.5181 30.4259 16.5376 30.1864C16.8145 29.2209 17.1588 28.2254 17.548 27.23C17.8549 27.8287 18.1768 28.4275 18.5285 29.0263C18.8803 29.6251 19.2396 30.2089 19.6063 30.7777ZM25.1375 15.202C25.8336 15.9206 26.5297 16.7214 27.2183 17.5971C26.5447 17.5672 25.8561 17.5447 25.16 17.5447C24.4564 17.5447 23.7604 17.5597 23.0793 17.5971C23.7529 16.7214 24.449 15.9206 25.1375 15.202ZM19.5989 19.6105C19.2321 20.1869 18.8654 20.7781 18.5211 21.3844C18.1768 21.9832 17.8549 22.582 17.548 23.1807C17.1439 22.1778 16.7996 21.1748 16.5152 20.2018C17.4957 19.9698 18.5285 19.7677 19.5989 19.6105ZM12.8252 28.9814C10.1756 27.8512 8.46161 26.3692 8.46161 25.1941C8.46161 24.019 10.1756 22.5296 12.8252 21.4069C13.4689 21.1299 14.1724 20.8829 14.8985 20.6509C15.3251 22.1179 15.8864 23.6448 16.5825 25.2091C15.8939 26.7659 15.3401 28.2853 14.9209 29.7448C14.1799 29.5128 13.4764 29.2583 12.8252 28.9814ZM16.852 39.677C15.834 39.0932 15.3925 36.8703 15.7367 34.0111C15.8191 33.3076 15.9538 32.5666 16.1185 31.8106C17.5855 32.1699 19.1872 32.4468 20.8713 32.6264C21.8817 34.0111 22.9296 35.2685 23.9849 36.3688C21.5449 38.6367 19.2546 39.8791 17.6977 39.8791C17.3609 39.8716 17.0765 39.8043 16.852 39.677ZM34.6057 33.9737C34.9575 36.8329 34.5234 39.0558 33.5129 39.6471C33.2884 39.7818 32.9965 39.8417 32.6522 39.8417C31.1029 39.8417 28.8051 38.6067 26.365 36.3538C27.4129 35.2536 28.4608 34.0036 29.4562 32.619C31.1478 32.4393 32.7495 32.1624 34.2165 31.7956C34.3887 32.5516 34.5234 33.2776 34.6057 33.9737ZM37.4873 28.9814C36.8436 29.2583 36.1401 29.5053 35.4141 29.7373C34.9874 28.2703 34.4261 26.7435 33.73 25.1792C34.4186 23.6223 34.9725 22.1029 35.3916 20.6434C36.1326 20.8754 36.8362 21.1299 37.4948 21.4069C40.1444 22.5371 41.8584 24.019 41.8584 25.1941C41.8509 26.3692 40.1369 27.8587 37.4873 28.9814Z" fill="#61DAFB"/>
<path d="M25.1525 28.6146C27.0416 28.6146 28.573 27.0832 28.573 25.1941C28.573 23.305 27.0416 21.7736 25.1525 21.7736C23.2634 21.7736 21.732 23.305 21.732 25.1941C21.732 27.0832 23.2634 28.6146 25.1525 28.6146Z" fill="#61DAFB"/>
</svg>
