<svg width="42" height="42" viewBox="0 0 42 42" fill="none" xmlns="http://www.w3.org/2000/svg">
<circle cx="21" cy="21" r="21" fill="#1F2233"/>
<path d="M26.9411 25.2083C28.0777 25.0888 28.94 24.0943 28.9008 22.9006C28.8617 21.7071 27.8817 20.7522 26.7059 20.7522H26.6276C25.4125 20.792 24.4719 21.8264 24.5111 23.0597C24.5503 23.6566 24.7854 24.1738 25.1381 24.5318C23.8056 27.1975 21.7675 29.147 18.7103 30.7782C16.633 31.8922 14.4774 32.29 12.3217 32.0116C10.558 31.7728 9.18615 30.9772 8.32375 29.6642C7.06961 27.7147 6.95207 25.606 8.01034 23.4974C8.75507 21.9856 9.93077 20.8716 10.6755 20.3145C10.5187 19.7974 10.2835 18.9221 10.166 18.2856C4.48278 22.4631 5.07074 28.1126 6.7953 30.7782C8.08866 32.7675 10.7147 34.0009 13.6151 34.0009C14.3989 34.0009 15.1828 33.9212 15.9667 33.7224C20.9836 32.7277 24.7855 29.704 26.9411 25.2083V25.2083ZM33.8394 20.2749C30.8606 16.7339 26.4708 14.7845 21.4539 14.7845H20.8269C20.4741 14.0683 19.7294 13.5908 18.9063 13.5908H18.8279C17.613 13.6306 16.6724 14.665 16.7115 15.8985C16.7507 17.092 17.7305 18.0469 18.9063 18.0469H18.9846C19.8469 18.007 20.5917 17.45 20.9052 16.6941H21.6107C24.5895 16.6941 27.4114 17.5694 29.9592 19.2802C31.9188 20.5931 33.3299 22.3039 34.1137 24.3727C34.78 26.0437 34.7408 27.6749 34.0353 29.0675C32.9379 31.176 31.0958 32.3298 28.6657 32.3298C27.0979 32.3298 25.6086 31.8523 24.8246 31.4943C24.3935 31.8922 23.6096 32.5287 23.0608 32.9267C24.7463 33.7223 26.4708 34.16 28.117 34.16C31.8796 34.16 34.6624 32.0513 35.7207 29.9427C36.8573 27.6351 36.7789 23.6566 33.8394 20.2749V20.2749ZM13.9286 25.8844C13.9678 27.0781 14.9477 28.0328 16.1235 28.0328H16.2019C17.417 27.9931 18.3576 26.9586 18.3183 25.7253C18.2792 24.5317 17.2993 23.5769 16.1235 23.5769H16.0452C15.9667 23.5769 15.8491 23.5769 15.7709 23.6166C14.1638 20.9112 13.4975 17.9672 13.7328 14.7843C13.8894 12.3972 14.6734 10.3283 16.0452 8.6175C17.1818 7.14543 19.3766 6.42931 20.8661 6.38962C25.0206 6.30999 26.7843 11.5616 26.9019 13.6703C27.4114 13.7896 28.2737 14.0682 28.8617 14.2671C28.3913 7.82199 24.4719 4.47998 20.7093 4.47998C17.1818 4.47998 13.9286 7.06605 12.6351 10.8854C10.8323 15.978 12.0081 20.8716 14.2029 24.7308C14.0071 25.0092 13.8894 25.4469 13.9286 25.8846V25.8844Z" fill="#764ABC"/>
</svg>
