<svg width="26" height="26" viewBox="0 0 26 26" fill="none" xmlns="http://www.w3.org/2000/svg">
<circle cx="13" cy="13" r="13" fill="#1F2233"/>
<path d="M12.8267 6.60376C9.96093 6.60376 8.16977 8.02518 7.45335 10.8679C8.52802 9.44652 9.78177 8.9135 11.2147 9.26888C12.0322 9.47159 12.6165 10.06 13.2634 10.7112C14.317 11.7722 15.5364 13 18.2 13C21.0658 13 22.8569 11.5786 23.5734 8.73585C22.4987 10.1573 21.2449 10.6903 19.812 10.3349C18.9945 10.1322 18.4102 9.5438 17.7633 8.89259C16.7097 7.83163 15.4903 6.60376 12.8267 6.60376ZM7.45335 13C4.5876 13 2.79643 14.4215 2.08002 17.2642C3.15468 15.8428 4.40843 15.3098 5.84135 15.6652C6.65885 15.8679 7.2432 16.4563 7.89002 17.1075C8.94369 18.1684 10.1631 19.3963 12.8267 19.3963C15.6924 19.3963 17.4836 17.9749 18.2 15.1321C17.1254 16.5536 15.8716 17.0866 14.4387 16.7312C13.6212 16.5285 13.0368 15.9401 12.39 15.2889C11.3363 14.2279 10.1169 13 7.45335 13Z" fill="url(#paint0_linear)"/>
<defs>
<linearGradient id="paint0_linear" x1="1.48293" y1="10.6974" x2="19.971" y2="21.4435" gradientUnits="userSpaceOnUse">
<stop stop-color="#2298BD"/>
<stop offset="1" stop-color="#0ED7B5"/>
</linearGradient>
</defs>
</svg>
