<svg width="325" height="292" viewBox="0 0 325 292" fill="none" xmlns="http://www.w3.org/2000/svg">
<path d="M272.93 12.5833C301.997 28.9068 321.873 61.9834 324.652 95.06C327.43 128.137 313.111 161.213 298.363 187.202C283.616 213.191 268.655 231.877 252.412 248.415C236.382 264.953 219.071 279.344 198.766 286.432C178.676 293.52 155.807 293.305 132.511 288.794C109.428 284.069 86.1321 275.048 58.775 260.228C31.4179 245.408 0 224.789 0 201.592C0 178.611 31.6316 153.051 52.7907 129.64C73.9497 106.229 84.8498 84.9652 102.162 63.2721C119.474 41.579 143.411 19.4564 174.402 8.28764C205.392 -3.09587 243.649 -3.74022 272.93 12.5833Z" fill="#578FA6"/>
</svg>
