<svg width="1203" height="237" viewBox="0 0 1203 237" fill="none" xmlns="http://www.w3.org/2000/svg">
<path d="M1203 -0.000103507L1152.87 10.3379C1102.75 20.2894 1002.5 41.545 902.25 66.9551C802 92.7517 701.75 123.669 601.5 159.707C501.25 196.131 401 236.71 300.75 237C200.5 236.71 100.25 196.131 50.125 175.166L-1.86489e-05 154.586L-3.21633e-05 1.66211e-06L50.125 -2.71996e-06C100.25 -7.10203e-06 200.5 -1.58662e-05 300.75 -2.46303e-05C401 -3.33944e-05 501.25 -4.21586e-05 601.5 -5.09227e-05C701.75 -5.96868e-05 802 -6.8451e-05 902.25 -7.72151e-05C1002.5 -8.59792e-05 1102.75 -9.47434e-05 1152.87 -9.91254e-05L1203 -0.000103507Z" fill="#0B0D13"/>
</svg>
