<svg viewBox="0 0 1201 163" fill="none" xmlns="http://www.w3.org/2000/svg">
<path d="M0 52.2185L28.6072 59.6271C57.2143 66.7586 114.262 81.9911 171.81 92.8615C228.774 104.147 286.072 111.071 342.785 92.8615C400.333 74.3748 457.881 30.0622 514.595 18.9841C571.893 7.90596 628.857 30.0623 686.405 55.8882C743.452 81.9911 800.667 111.071 858.215 100.201C915.012 88.9149 972.476 37.6785 1029.19 15.3145C1086.65 -6.63411 1143.45 0.28973 1172.64 4.23632L1201 7.90596V163H1172.39C1143.79 163 1086.74 163 1029.19 163C972.226 163 914.928 163 858.215 163C800.667 163 743.119 163 686.405 163C629.107 163 572.143 163 514.595 163C457.548 163 400.333 163 342.785 163C285.988 163 228.524 163 171.81 163C114.345 163 57.5479 163 28.3569 163H0L0 52.2185Z" fill="#0B0D13"/>
</svg>
