<svg viewBox="0 0 1201 205"  xmlns="http://www.w3.org/2000/svg">
<path d="M1201 1.47986e-05L1150.96 8.92784C1100.92 17.5219 1000.83 35.8782 900.75 57.8222C800.667 80.1001 700.583 106.8 600.5 137.922C500.417 169.378 400.333 204.422 300.25 204.672C200.167 204.422 100.083 169.378 50.0417 151.272L9.03672e-06 133.5L-2.63422e-06 0.000119793L50.0417 0.000115419C100.083 0.000111044 200.167 0.000102294 300.25 9.35447e-05C400.333 8.47951e-05 500.417 7.60456e-05 600.5 6.7296e-05C700.583 5.85465e-05 800.667 4.97969e-05 900.75 4.10473e-05C1000.83 3.22978e-05 1100.92 2.35482e-05 1150.96 1.91734e-05L1201 1.47986e-05Z" fill="#090B10"/>
</svg>
