<svg width="258" height="34" viewBox="0 0 258 34" fill="none" xmlns="http://www.w3.org/2000/svg">
<path d="M255 1.0625C255 0.475698 255.476 2.03791e-07 256.063 1.52491e-07C256.649 1.01191e-07 257.125 0.475697 257.125 1.0625C257.125 1.6493 256.649 2.125 256.063 2.125C255.476 2.125 255 1.6493 255 1.0625Z" fill="#6483C4"/>
<path d="M233.75 1.0625C233.75 0.475698 234.226 2.03791e-07 234.813 1.52491e-07C235.399 1.01191e-07 235.875 0.475697 235.875 1.0625C235.875 1.6493 235.399 2.125 234.813 2.125C234.226 2.125 233.75 1.6493 233.75 1.0625Z" fill="#6483C4"/>
<path d="M244.375 1.0625C244.375 0.475698 244.851 2.03791e-07 245.438 1.52491e-07C246.024 1.01191e-07 246.5 0.475697 246.5 1.0625C246.5 1.6493 246.024 2.125 245.438 2.125C244.851 2.125 244.375 1.6493 244.375 1.0625Z" fill="#6483C4"/>
<path d="M223.125 1.0625C223.125 0.475698 223.601 2.03791e-07 224.188 1.52491e-07C224.774 1.01191e-07 225.25 0.475697 225.25 1.0625C225.25 1.6493 224.774 2.125 224.188 2.125C223.601 2.125 223.125 1.6493 223.125 1.0625Z" fill="#6483C4"/>
<path d="M201.875 1.0625C201.875 0.475698 202.351 2.03791e-07 202.937 1.52491e-07C203.524 1.01191e-07 204 0.475697 204 1.0625C204 1.6493 203.524 2.125 202.938 2.125C202.351 2.125 201.875 1.6493 201.875 1.0625Z" fill="#6483C4"/>
<path d="M212.5 1.0625C212.5 0.475698 212.976 2.03791e-07 213.562 1.52491e-07C214.149 1.01191e-07 214.625 0.475697 214.625 1.0625C214.625 1.6493 214.149 2.125 213.563 2.125C212.976 2.125 212.5 1.6493 212.5 1.0625Z" fill="#6483C4"/>
<path d="M191.25 1.0625C191.25 0.475698 191.726 2.03791e-07 192.313 1.52491e-07C192.899 1.01191e-07 193.375 0.475697 193.375 1.0625C193.375 1.6493 192.899 2.125 192.313 2.125C191.726 2.125 191.25 1.6493 191.25 1.0625Z" fill="#6483C4"/>
<path d="M170 1.0625C170 0.475698 170.476 2.03791e-07 171.063 1.52491e-07C171.649 1.01191e-07 172.125 0.475697 172.125 1.0625C172.125 1.6493 171.649 2.125 171.063 2.125C170.476 2.125 170 1.6493 170 1.0625Z" fill="#6483C4"/>
<path d="M180.625 1.0625C180.625 0.475698 181.101 2.03791e-07 181.688 1.52491e-07C182.274 1.01191e-07 182.75 0.475697 182.75 1.0625C182.75 1.6493 182.274 2.125 181.688 2.125C181.101 2.125 180.625 1.6493 180.625 1.0625Z" fill="#6483C4"/>
<path d="M159.375 1.0625C159.375 0.475698 159.851 2.03791e-07 160.438 1.52491e-07C161.024 1.01191e-07 161.5 0.475697 161.5 1.0625C161.5 1.6493 161.024 2.125 160.438 2.125C159.851 2.125 159.375 1.6493 159.375 1.0625Z" fill="#6483C4"/>
<path d="M138.125 1.0625C138.125 0.475698 138.601 2.03791e-07 139.187 1.52491e-07C139.774 1.01191e-07 140.25 0.475697 140.25 1.0625C140.25 1.6493 139.774 2.125 139.188 2.125C138.601 2.125 138.125 1.6493 138.125 1.0625Z" fill="#6483C4"/>
<path d="M148.75 1.0625C148.75 0.475698 149.226 2.03791e-07 149.812 1.52491e-07C150.399 1.01191e-07 150.875 0.475697 150.875 1.0625C150.875 1.6493 150.399 2.125 149.813 2.125C149.226 2.125 148.75 1.6493 148.75 1.0625Z" fill="#6483C4"/>
<path d="M127.5 1.0625C127.5 0.475698 127.976 2.03791e-07 128.562 1.52491e-07C129.149 1.01191e-07 129.625 0.475697 129.625 1.0625C129.625 1.6493 129.149 2.125 128.563 2.125C127.976 2.125 127.5 1.6493 127.5 1.0625Z" fill="#6483C4"/>
<path d="M106.25 1.0625C106.25 0.475698 106.726 2.03791e-07 107.313 1.52491e-07C107.899 1.01191e-07 108.375 0.475697 108.375 1.0625C108.375 1.6493 107.899 2.125 107.313 2.125C106.726 2.125 106.25 1.6493 106.25 1.0625Z" fill="#6483C4"/>
<path d="M116.875 1.0625C116.875 0.475698 117.351 2.03791e-07 117.938 1.52491e-07C118.524 1.01191e-07 119 0.475697 119 1.0625C119 1.6493 118.524 2.125 117.938 2.125C117.351 2.125 116.875 1.6493 116.875 1.0625Z" fill="#6483C4"/>
<path d="M95.625 1.0625C95.625 0.475698 96.1007 2.03791e-07 96.6875 1.52491e-07C97.2743 1.01191e-07 97.75 0.475697 97.75 1.0625C97.75 1.6493 97.2743 2.125 96.6875 2.125C96.1007 2.125 95.625 1.6493 95.625 1.0625Z" fill="#6483C4"/>
<path d="M74.375 1.0625C74.375 0.475698 74.8507 2.03791e-07 75.4375 1.52491e-07C76.0243 1.01191e-07 76.5 0.475697 76.5 1.0625C76.5 1.6493 76.0243 2.125 75.4375 2.125C74.8507 2.125 74.375 1.6493 74.375 1.0625Z" fill="#6483C4"/>
<path d="M85 1.0625C85 0.475698 85.4757 2.03791e-07 86.0625 1.52491e-07C86.6493 1.01191e-07 87.125 0.475697 87.125 1.0625C87.125 1.6493 86.6493 2.125 86.0625 2.125C85.4757 2.125 85 1.6493 85 1.0625Z" fill="#6483C4"/>
<path d="M63.75 1.0625C63.75 0.475698 64.2257 2.03791e-07 64.8125 1.52491e-07C65.3993 1.01191e-07 65.875 0.475697 65.875 1.0625C65.875 1.6493 65.3993 2.125 64.8125 2.125C64.2257 2.125 63.75 1.6493 63.75 1.0625Z" fill="#6483C4"/>
<path d="M42.5 1.0625C42.5 0.475698 42.9757 2.03791e-07 43.5625 1.52491e-07C44.1493 1.01191e-07 44.625 0.475697 44.625 1.0625C44.625 1.6493 44.1493 2.125 43.5625 2.125C42.9757 2.125 42.5 1.6493 42.5 1.0625Z" fill="#6483C4"/>
<path d="M53.125 1.0625C53.125 0.475698 53.6007 2.03791e-07 54.1875 1.52491e-07C54.7743 1.01191e-07 55.25 0.475697 55.25 1.0625C55.25 1.6493 54.7743 2.125 54.1875 2.125C53.6007 2.125 53.125 1.6493 53.125 1.0625Z" fill="#6483C4"/>
<path d="M31.875 1.0625C31.875 0.475698 32.3507 2.03791e-07 32.9375 1.52491e-07C33.5243 1.01191e-07 34 0.475697 34 1.0625C34 1.6493 33.5243 2.125 32.9375 2.125C32.3507 2.125 31.875 1.6493 31.875 1.0625Z" fill="#6483C4"/>
<path d="M10.625 1.0625C10.625 0.475698 11.1007 2.03791e-07 11.6875 1.52491e-07C12.2743 1.01191e-07 12.75 0.475697 12.75 1.0625C12.75 1.6493 12.2743 2.125 11.6875 2.125C11.1007 2.125 10.625 1.6493 10.625 1.0625Z" fill="#6483C4"/>
<path d="M-1.52921e-05 1.0625C-1.53434e-05 0.475698 0.475682 2.03791e-07 1.06248 1.52491e-07C1.64929 1.01191e-07 2.12498 0.475697 2.12498 1.0625C2.12498 1.6493 1.64929 2.125 1.06248 2.125C0.475682 2.125 -1.52408e-05 1.6493 -1.52921e-05 1.0625Z" fill="#6483C4"/>
<path d="M21.25 1.0625C21.25 0.475698 21.7257 2.03791e-07 22.3125 1.52491e-07C22.8993 1.01191e-07 23.375 0.475697 23.375 1.0625C23.375 1.6493 22.8993 2.125 22.3125 2.125C21.7257 2.125 21.25 1.6493 21.25 1.0625Z" fill="#6483C4"/>
<path d="M127.5 1.0625C127.5 0.475698 127.976 2.03791e-07 128.562 1.52491e-07C129.149 1.01191e-07 129.625 0.475697 129.625 1.0625C129.625 1.6493 129.149 2.125 128.563 2.125C127.976 2.125 127.5 1.6493 127.5 1.0625Z" fill="#6483C4"/>
<path d="M255 11.6875C255 11.1007 255.476 10.625 256.063 10.625C256.649 10.625 257.125 11.1007 257.125 11.6875C257.125 12.2743 256.649 12.75 256.063 12.75C255.476 12.75 255 12.2743 255 11.6875Z" fill="#6483C4"/>
<path d="M233.75 11.6875C233.75 11.1007 234.226 10.625 234.813 10.625C235.399 10.625 235.875 11.1007 235.875 11.6875C235.875 12.2743 235.399 12.75 234.813 12.75C234.226 12.75 233.75 12.2743 233.75 11.6875Z" fill="#6483C4"/>
<path d="M244.375 11.6875C244.375 11.1007 244.851 10.625 245.438 10.625C246.024 10.625 246.5 11.1007 246.5 11.6875C246.5 12.2743 246.024 12.75 245.438 12.75C244.851 12.75 244.375 12.2743 244.375 11.6875Z" fill="#6483C4"/>
<path d="M223.125 11.6875C223.125 11.1007 223.601 10.625 224.188 10.625C224.774 10.625 225.25 11.1007 225.25 11.6875C225.25 12.2743 224.774 12.75 224.188 12.75C223.601 12.75 223.125 12.2743 223.125 11.6875Z" fill="#6483C4"/>
<path d="M201.875 11.6875C201.875 11.1007 202.351 10.625 202.937 10.625C203.524 10.625 204 11.1007 204 11.6875C204 12.2743 203.524 12.75 202.938 12.75C202.351 12.75 201.875 12.2743 201.875 11.6875Z" fill="#6483C4"/>
<path d="M212.5 11.6875C212.5 11.1007 212.976 10.625 213.562 10.625C214.149 10.625 214.625 11.1007 214.625 11.6875C214.625 12.2743 214.149 12.75 213.563 12.75C212.976 12.75 212.5 12.2743 212.5 11.6875Z" fill="#6483C4"/>
<path d="M191.25 11.6875C191.25 11.1007 191.726 10.625 192.313 10.625C192.899 10.625 193.375 11.1007 193.375 11.6875C193.375 12.2743 192.899 12.75 192.313 12.75C191.726 12.75 191.25 12.2743 191.25 11.6875Z" fill="#6483C4"/>
<path d="M170 11.6875C170 11.1007 170.476 10.625 171.063 10.625C171.649 10.625 172.125 11.1007 172.125 11.6875C172.125 12.2743 171.649 12.75 171.063 12.75C170.476 12.75 170 12.2743 170 11.6875Z" fill="#6483C4"/>
<path d="M180.625 11.6875C180.625 11.1007 181.101 10.625 181.688 10.625C182.274 10.625 182.75 11.1007 182.75 11.6875C182.75 12.2743 182.274 12.75 181.688 12.75C181.101 12.75 180.625 12.2743 180.625 11.6875Z" fill="#6483C4"/>
<path d="M159.375 11.6875C159.375 11.1007 159.851 10.625 160.438 10.625C161.024 10.625 161.5 11.1007 161.5 11.6875C161.5 12.2743 161.024 12.75 160.438 12.75C159.851 12.75 159.375 12.2743 159.375 11.6875Z" fill="#6483C4"/>
<path d="M138.125 11.6875C138.125 11.1007 138.601 10.625 139.187 10.625C139.774 10.625 140.25 11.1007 140.25 11.6875C140.25 12.2743 139.774 12.75 139.188 12.75C138.601 12.75 138.125 12.2743 138.125 11.6875Z" fill="#6483C4"/>
<path d="M148.75 11.6875C148.75 11.1007 149.226 10.625 149.812 10.625C150.399 10.625 150.875 11.1007 150.875 11.6875C150.875 12.2743 150.399 12.75 149.813 12.75C149.226 12.75 148.75 12.2743 148.75 11.6875Z" fill="#6483C4"/>
<path d="M127.5 11.6875C127.5 11.1007 127.976 10.625 128.562 10.625C129.149 10.625 129.625 11.1007 129.625 11.6875C129.625 12.2743 129.149 12.75 128.563 12.75C127.976 12.75 127.5 12.2743 127.5 11.6875Z" fill="#6483C4"/>
<path d="M106.25 11.6875C106.25 11.1007 106.726 10.625 107.313 10.625C107.899 10.625 108.375 11.1007 108.375 11.6875C108.375 12.2743 107.899 12.75 107.313 12.75C106.726 12.75 106.25 12.2743 106.25 11.6875Z" fill="#6483C4"/>
<path d="M116.875 11.6875C116.875 11.1007 117.351 10.625 117.938 10.625C118.524 10.625 119 11.1007 119 11.6875C119 12.2743 118.524 12.75 117.938 12.75C117.351 12.75 116.875 12.2743 116.875 11.6875Z" fill="#6483C4"/>
<path d="M95.625 11.6875C95.625 11.1007 96.1007 10.625 96.6875 10.625C97.2743 10.625 97.75 11.1007 97.75 11.6875C97.75 12.2743 97.2743 12.75 96.6875 12.75C96.1007 12.75 95.625 12.2743 95.625 11.6875Z" fill="#6483C4"/>
<path d="M74.375 11.6875C74.375 11.1007 74.8507 10.625 75.4375 10.625C76.0243 10.625 76.5 11.1007 76.5 11.6875C76.5 12.2743 76.0243 12.75 75.4375 12.75C74.8507 12.75 74.375 12.2743 74.375 11.6875Z" fill="#6483C4"/>
<path d="M85 11.6875C85 11.1007 85.4757 10.625 86.0625 10.625C86.6493 10.625 87.125 11.1007 87.125 11.6875C87.125 12.2743 86.6493 12.75 86.0625 12.75C85.4757 12.75 85 12.2743 85 11.6875Z" fill="#6483C4"/>
<path d="M63.75 11.6875C63.75 11.1007 64.2257 10.625 64.8125 10.625C65.3993 10.625 65.875 11.1007 65.875 11.6875C65.875 12.2743 65.3993 12.75 64.8125 12.75C64.2257 12.75 63.75 12.2743 63.75 11.6875Z" fill="#6483C4"/>
<path d="M42.5 11.6875C42.5 11.1007 42.9757 10.625 43.5625 10.625C44.1493 10.625 44.625 11.1007 44.625 11.6875C44.625 12.2743 44.1493 12.75 43.5625 12.75C42.9757 12.75 42.5 12.2743 42.5 11.6875Z" fill="#6483C4"/>
<path d="M53.125 11.6875C53.125 11.1007 53.6007 10.625 54.1875 10.625C54.7743 10.625 55.25 11.1007 55.25 11.6875C55.25 12.2743 54.7743 12.75 54.1875 12.75C53.6007 12.75 53.125 12.2743 53.125 11.6875Z" fill="#6483C4"/>
<path d="M31.875 11.6875C31.875 11.1007 32.3507 10.625 32.9375 10.625C33.5243 10.625 34 11.1007 34 11.6875C34 12.2743 33.5243 12.75 32.9375 12.75C32.3507 12.75 31.875 12.2743 31.875 11.6875Z" fill="#6483C4"/>
<path d="M10.625 11.6875C10.625 11.1007 11.1007 10.625 11.6875 10.625C12.2743 10.625 12.75 11.1007 12.75 11.6875C12.75 12.2743 12.2743 12.75 11.6875 12.75C11.1007 12.75 10.625 12.2743 10.625 11.6875Z" fill="#6483C4"/>
<path d="M-1.52921e-05 11.6875C-1.53434e-05 11.1007 0.475682 10.625 1.06248 10.625C1.64929 10.625 2.12498 11.1007 2.12498 11.6875C2.12498 12.2743 1.64929 12.75 1.06248 12.75C0.475682 12.75 -1.52408e-05 12.2743 -1.52921e-05 11.6875Z" fill="#6483C4"/>
<path d="M21.25 11.6875C21.25 11.1007 21.7257 10.625 22.3125 10.625C22.8993 10.625 23.375 11.1007 23.375 11.6875C23.375 12.2743 22.8993 12.75 22.3125 12.75C21.7257 12.75 21.25 12.2743 21.25 11.6875Z" fill="#6483C4"/>
<path d="M127.5 11.6875C127.5 11.1007 127.976 10.625 128.562 10.625C129.149 10.625 129.625 11.1007 129.625 11.6875C129.625 12.2743 129.149 12.75 128.563 12.75C127.976 12.75 127.5 12.2743 127.5 11.6875Z" fill="#6483C4"/>
<path d="M255 22.3125C255 21.7257 255.476 21.25 256.063 21.25C256.649 21.25 257.125 21.7257 257.125 22.3125C257.125 22.8993 256.649 23.375 256.063 23.375C255.476 23.375 255 22.8993 255 22.3125Z" fill="#6483C4" fill-opacity="0.4"/>
<path d="M233.75 22.3125C233.75 21.7257 234.226 21.25 234.813 21.25C235.399 21.25 235.875 21.7257 235.875 22.3125C235.875 22.8993 235.399 23.375 234.813 23.375C234.226 23.375 233.75 22.8993 233.75 22.3125Z" fill="#6483C4" fill-opacity="0.4"/>
<path d="M244.375 22.3125C244.375 21.7257 244.851 21.25 245.438 21.25C246.024 21.25 246.5 21.7257 246.5 22.3125C246.5 22.8993 246.024 23.375 245.438 23.375C244.851 23.375 244.375 22.8993 244.375 22.3125Z" fill="#6483C4" fill-opacity="0.4"/>
<path d="M223.125 22.3125C223.125 21.7257 223.601 21.25 224.188 21.25C224.774 21.25 225.25 21.7257 225.25 22.3125C225.25 22.8993 224.774 23.375 224.188 23.375C223.601 23.375 223.125 22.8993 223.125 22.3125Z" fill="#6483C4" fill-opacity="0.4"/>
<path d="M201.875 22.3125C201.875 21.7257 202.351 21.25 202.937 21.25C203.524 21.25 204 21.7257 204 22.3125C204 22.8993 203.524 23.375 202.938 23.375C202.351 23.375 201.875 22.8993 201.875 22.3125Z" fill="#6483C4" fill-opacity="0.4"/>
<path d="M212.5 22.3125C212.5 21.7257 212.976 21.25 213.562 21.25C214.149 21.25 214.625 21.7257 214.625 22.3125C214.625 22.8993 214.149 23.375 213.563 23.375C212.976 23.375 212.5 22.8993 212.5 22.3125Z" fill="#6483C4" fill-opacity="0.4"/>
<path d="M191.25 22.3125C191.25 21.7257 191.726 21.25 192.313 21.25C192.899 21.25 193.375 21.7257 193.375 22.3125C193.375 22.8993 192.899 23.375 192.313 23.375C191.726 23.375 191.25 22.8993 191.25 22.3125Z" fill="#6483C4" fill-opacity="0.4"/>
<path d="M170 22.3125C170 21.7257 170.476 21.25 171.063 21.25C171.649 21.25 172.125 21.7257 172.125 22.3125C172.125 22.8993 171.649 23.375 171.063 23.375C170.476 23.375 170 22.8993 170 22.3125Z" fill="#6483C4" fill-opacity="0.4"/>
<path d="M180.625 22.3125C180.625 21.7257 181.101 21.25 181.688 21.25C182.274 21.25 182.75 21.7257 182.75 22.3125C182.75 22.8993 182.274 23.375 181.688 23.375C181.101 23.375 180.625 22.8993 180.625 22.3125Z" fill="#6483C4" fill-opacity="0.4"/>
<path d="M159.375 22.3125C159.375 21.7257 159.851 21.25 160.438 21.25C161.024 21.25 161.5 21.7257 161.5 22.3125C161.5 22.8993 161.024 23.375 160.438 23.375C159.851 23.375 159.375 22.8993 159.375 22.3125Z" fill="#6483C4" fill-opacity="0.4"/>
<path d="M138.125 22.3125C138.125 21.7257 138.601 21.25 139.187 21.25C139.774 21.25 140.25 21.7257 140.25 22.3125C140.25 22.8993 139.774 23.375 139.188 23.375C138.601 23.375 138.125 22.8993 138.125 22.3125Z" fill="#6483C4" fill-opacity="0.4"/>
<path d="M148.75 22.3125C148.75 21.7257 149.226 21.25 149.812 21.25C150.399 21.25 150.875 21.7257 150.875 22.3125C150.875 22.8993 150.399 23.375 149.813 23.375C149.226 23.375 148.75 22.8993 148.75 22.3125Z" fill="#6483C4" fill-opacity="0.4"/>
<path d="M127.5 22.3125C127.5 21.7257 127.976 21.25 128.562 21.25C129.149 21.25 129.625 21.7257 129.625 22.3125C129.625 22.8993 129.149 23.375 128.563 23.375C127.976 23.375 127.5 22.8993 127.5 22.3125Z" fill="#6483C4" fill-opacity="0.4"/>
<path d="M106.25 22.3125C106.25 21.7257 106.726 21.25 107.313 21.25C107.899 21.25 108.375 21.7257 108.375 22.3125C108.375 22.8993 107.899 23.375 107.313 23.375C106.726 23.375 106.25 22.8993 106.25 22.3125Z" fill="#6483C4" fill-opacity="0.4"/>
<path d="M116.875 22.3125C116.875 21.7257 117.351 21.25 117.938 21.25C118.524 21.25 119 21.7257 119 22.3125C119 22.8993 118.524 23.375 117.938 23.375C117.351 23.375 116.875 22.8993 116.875 22.3125Z" fill="#6483C4" fill-opacity="0.4"/>
<path d="M95.625 22.3125C95.625 21.7257 96.1007 21.25 96.6875 21.25C97.2743 21.25 97.75 21.7257 97.75 22.3125C97.75 22.8993 97.2743 23.375 96.6875 23.375C96.1007 23.375 95.625 22.8993 95.625 22.3125Z" fill="#6483C4" fill-opacity="0.4"/>
<path d="M74.375 22.3125C74.375 21.7257 74.8507 21.25 75.4375 21.25C76.0243 21.25 76.5 21.7257 76.5 22.3125C76.5 22.8993 76.0243 23.375 75.4375 23.375C74.8507 23.375 74.375 22.8993 74.375 22.3125Z" fill="#6483C4" fill-opacity="0.4"/>
<path d="M85 22.3125C85 21.7257 85.4757 21.25 86.0625 21.25C86.6493 21.25 87.125 21.7257 87.125 22.3125C87.125 22.8993 86.6493 23.375 86.0625 23.375C85.4757 23.375 85 22.8993 85 22.3125Z" fill="#6483C4" fill-opacity="0.4"/>
<path d="M63.75 22.3125C63.75 21.7257 64.2257 21.25 64.8125 21.25C65.3993 21.25 65.875 21.7257 65.875 22.3125C65.875 22.8993 65.3993 23.375 64.8125 23.375C64.2257 23.375 63.75 22.8993 63.75 22.3125Z" fill="#6483C4" fill-opacity="0.4"/>
<path d="M42.5 22.3125C42.5 21.7257 42.9757 21.25 43.5625 21.25C44.1493 21.25 44.625 21.7257 44.625 22.3125C44.625 22.8993 44.1493 23.375 43.5625 23.375C42.9757 23.375 42.5 22.8993 42.5 22.3125Z" fill="#6483C4" fill-opacity="0.4"/>
<path d="M53.125 22.3125C53.125 21.7257 53.6007 21.25 54.1875 21.25C54.7743 21.25 55.25 21.7257 55.25 22.3125C55.25 22.8993 54.7743 23.375 54.1875 23.375C53.6007 23.375 53.125 22.8993 53.125 22.3125Z" fill="#6483C4" fill-opacity="0.4"/>
<path d="M31.875 22.3125C31.875 21.7257 32.3507 21.25 32.9375 21.25C33.5243 21.25 34 21.7257 34 22.3125C34 22.8993 33.5243 23.375 32.9375 23.375C32.3507 23.375 31.875 22.8993 31.875 22.3125Z" fill="#6483C4" fill-opacity="0.4"/>
<path d="M10.625 22.3125C10.625 21.7257 11.1007 21.25 11.6875 21.25C12.2743 21.25 12.75 21.7257 12.75 22.3125C12.75 22.8993 12.2743 23.375 11.6875 23.375C11.1007 23.375 10.625 22.8993 10.625 22.3125Z" fill="#6483C4" fill-opacity="0.4"/>
<path d="M-1.52921e-05 22.3125C-1.53434e-05 21.7257 0.475682 21.25 1.06248 21.25C1.64929 21.25 2.12498 21.7257 2.12498 22.3125C2.12498 22.8993 1.64929 23.375 1.06248 23.375C0.475682 23.375 -1.52408e-05 22.8993 -1.52921e-05 22.3125Z" fill="#6483C4" fill-opacity="0.4"/>
<path d="M21.25 22.3125C21.25 21.7257 21.7257 21.25 22.3125 21.25C22.8993 21.25 23.375 21.7257 23.375 22.3125C23.375 22.8993 22.8993 23.375 22.3125 23.375C21.7257 23.375 21.25 22.8993 21.25 22.3125Z" fill="#6483C4" fill-opacity="0.4"/>
<path d="M127.5 22.3125C127.5 21.7257 127.976 21.25 128.562 21.25C129.149 21.25 129.625 21.7257 129.625 22.3125C129.625 22.8993 129.149 23.375 128.562 23.375C127.976 23.375 127.5 22.8993 127.5 22.3125Z" fill="#6483C4" fill-opacity="0.4"/>
<path d="M255 32.9375C255 32.3507 255.476 31.875 256.063 31.875C256.649 31.875 257.125 32.3507 257.125 32.9375C257.125 33.5243 256.649 34 256.063 34C255.476 34 255 33.5243 255 32.9375Z" fill="#6483C4" fill-opacity="0.1"/>
<path d="M233.75 32.9375C233.75 32.3507 234.226 31.875 234.813 31.875C235.399 31.875 235.875 32.3507 235.875 32.9375C235.875 33.5243 235.399 34 234.813 34C234.226 34 233.75 33.5243 233.75 32.9375Z" fill="#6483C4" fill-opacity="0.1"/>
<path d="M244.375 32.9375C244.375 32.3507 244.851 31.875 245.438 31.875C246.024 31.875 246.5 32.3507 246.5 32.9375C246.5 33.5243 246.024 34 245.438 34C244.851 34 244.375 33.5243 244.375 32.9375Z" fill="#6483C4" fill-opacity="0.1"/>
<path d="M223.125 32.9375C223.125 32.3507 223.601 31.875 224.188 31.875C224.774 31.875 225.25 32.3507 225.25 32.9375C225.25 33.5243 224.774 34 224.188 34C223.601 34 223.125 33.5243 223.125 32.9375Z" fill="#6483C4" fill-opacity="0.1"/>
<path d="M201.875 32.9375C201.875 32.3507 202.351 31.875 202.937 31.875C203.524 31.875 204 32.3507 204 32.9375C204 33.5243 203.524 34 202.938 34C202.351 34 201.875 33.5243 201.875 32.9375Z" fill="#6483C4" fill-opacity="0.1"/>
<path d="M212.5 32.9375C212.5 32.3507 212.976 31.875 213.562 31.875C214.149 31.875 214.625 32.3507 214.625 32.9375C214.625 33.5243 214.149 34 213.563 34C212.976 34 212.5 33.5243 212.5 32.9375Z" fill="#6483C4" fill-opacity="0.1"/>
<path d="M191.25 32.9375C191.25 32.3507 191.726 31.875 192.313 31.875C192.899 31.875 193.375 32.3507 193.375 32.9375C193.375 33.5243 192.899 34 192.313 34C191.726 34 191.25 33.5243 191.25 32.9375Z" fill="#6483C4" fill-opacity="0.1"/>
<path d="M170 32.9375C170 32.3507 170.476 31.875 171.063 31.875C171.649 31.875 172.125 32.3507 172.125 32.9375C172.125 33.5243 171.649 34 171.063 34C170.476 34 170 33.5243 170 32.9375Z" fill="#6483C4" fill-opacity="0.1"/>
<path d="M180.625 32.9375C180.625 32.3507 181.101 31.875 181.688 31.875C182.274 31.875 182.75 32.3507 182.75 32.9375C182.75 33.5243 182.274 34 181.688 34C181.101 34 180.625 33.5243 180.625 32.9375Z" fill="#6483C4" fill-opacity="0.1"/>
<path d="M159.375 32.9375C159.375 32.3507 159.851 31.875 160.438 31.875C161.024 31.875 161.5 32.3507 161.5 32.9375C161.5 33.5243 161.024 34 160.438 34C159.851 34 159.375 33.5243 159.375 32.9375Z" fill="#6483C4" fill-opacity="0.1"/>
<path d="M138.125 32.9375C138.125 32.3507 138.601 31.875 139.187 31.875C139.774 31.875 140.25 32.3507 140.25 32.9375C140.25 33.5243 139.774 34 139.188 34C138.601 34 138.125 33.5243 138.125 32.9375Z" fill="#6483C4" fill-opacity="0.1"/>
<path d="M148.75 32.9375C148.75 32.3507 149.226 31.875 149.812 31.875C150.399 31.875 150.875 32.3507 150.875 32.9375C150.875 33.5243 150.399 34 149.813 34C149.226 34 148.75 33.5243 148.75 32.9375Z" fill="#6483C4" fill-opacity="0.1"/>
<path d="M127.5 32.9375C127.5 32.3507 127.976 31.875 128.562 31.875C129.149 31.875 129.625 32.3507 129.625 32.9375C129.625 33.5243 129.149 34 128.563 34C127.976 34 127.5 33.5243 127.5 32.9375Z" fill="#6483C4" fill-opacity="0.1"/>
<path d="M106.25 32.9375C106.25 32.3507 106.726 31.875 107.313 31.875C107.899 31.875 108.375 32.3507 108.375 32.9375C108.375 33.5243 107.899 34 107.313 34C106.726 34 106.25 33.5243 106.25 32.9375Z" fill="#6483C4" fill-opacity="0.1"/>
<path d="M116.875 32.9375C116.875 32.3507 117.351 31.875 117.938 31.875C118.524 31.875 119 32.3507 119 32.9375C119 33.5243 118.524 34 117.938 34C117.351 34 116.875 33.5243 116.875 32.9375Z" fill="#6483C4" fill-opacity="0.1"/>
<path d="M95.625 32.9375C95.625 32.3507 96.1007 31.875 96.6875 31.875C97.2743 31.875 97.75 32.3507 97.75 32.9375C97.75 33.5243 97.2743 34 96.6875 34C96.1007 34 95.625 33.5243 95.625 32.9375Z" fill="#6483C4" fill-opacity="0.1"/>
<path d="M74.375 32.9375C74.375 32.3507 74.8507 31.875 75.4375 31.875C76.0243 31.875 76.5 32.3507 76.5 32.9375C76.5 33.5243 76.0243 34 75.4375 34C74.8507 34 74.375 33.5243 74.375 32.9375Z" fill="#6483C4" fill-opacity="0.1"/>
<path d="M85 32.9375C85 32.3507 85.4757 31.875 86.0625 31.875C86.6493 31.875 87.125 32.3507 87.125 32.9375C87.125 33.5243 86.6493 34 86.0625 34C85.4757 34 85 33.5243 85 32.9375Z" fill="#6483C4" fill-opacity="0.1"/>
<path d="M63.75 32.9375C63.75 32.3507 64.2257 31.875 64.8125 31.875C65.3993 31.875 65.875 32.3507 65.875 32.9375C65.875 33.5243 65.3993 34 64.8125 34C64.2257 34 63.75 33.5243 63.75 32.9375Z" fill="#6483C4" fill-opacity="0.1"/>
<path d="M42.5 32.9375C42.5 32.3507 42.9757 31.875 43.5625 31.875C44.1493 31.875 44.625 32.3507 44.625 32.9375C44.625 33.5243 44.1493 34 43.5625 34C42.9757 34 42.5 33.5243 42.5 32.9375Z" fill="#6483C4" fill-opacity="0.1"/>
<path d="M53.125 32.9375C53.125 32.3507 53.6007 31.875 54.1875 31.875C54.7743 31.875 55.25 32.3507 55.25 32.9375C55.25 33.5243 54.7743 34 54.1875 34C53.6007 34 53.125 33.5243 53.125 32.9375Z" fill="#6483C4" fill-opacity="0.1"/>
<path d="M31.875 32.9375C31.875 32.3507 32.3507 31.875 32.9375 31.875C33.5243 31.875 34 32.3507 34 32.9375C34 33.5243 33.5243 34 32.9375 34C32.3507 34 31.875 33.5243 31.875 32.9375Z" fill="#6483C4" fill-opacity="0.1"/>
<path d="M10.625 32.9375C10.625 32.3507 11.1007 31.875 11.6875 31.875C12.2743 31.875 12.75 32.3507 12.75 32.9375C12.75 33.5243 12.2743 34 11.6875 34C11.1007 34 10.625 33.5243 10.625 32.9375Z" fill="#6483C4" fill-opacity="0.1"/>
<path d="M-1.52921e-05 32.9375C-1.53434e-05 32.3507 0.475682 31.875 1.06248 31.875C1.64929 31.875 2.12498 32.3507 2.12498 32.9375C2.12498 33.5243 1.64929 34 1.06248 34C0.475682 34 -1.52408e-05 33.5243 -1.52921e-05 32.9375Z" fill="#6483C4" fill-opacity="0.1"/>
<path d="M21.25 32.9375C21.25 32.3507 21.7257 31.875 22.3125 31.875C22.8993 31.875 23.375 32.3507 23.375 32.9375C23.375 33.5243 22.8993 34 22.3125 34C21.7257 34 21.25 33.5243 21.25 32.9375Z" fill="#6483C4" fill-opacity="0.1"/>
<path d="M127.5 32.9375C127.5 32.3507 127.976 31.875 128.562 31.875C129.149 31.875 129.625 32.3507 129.625 32.9375C129.625 33.5243 129.149 34 128.563 34C127.976 34 127.5 33.5243 127.5 32.9375Z" fill="#6483C4" fill-opacity="0.1"/>
</svg>
