<svg width="134" height="127" viewBox="0 0 134 127" fill="none" xmlns="http://www.w3.org/2000/svg">
<circle cx="4.53061" cy="4.53061" r="4.53061" fill="#090B10"/>
<circle cx="15.8572" cy="4.53061" r="4.53061" fill="#090B10"/>
<circle cx="27.1837" cy="4.53061" r="4.53061" fill="#090B10"/>
<circle cx="38.5102" cy="4.53061" r="4.53061" fill="#090B10"/>
<circle cx="49.8368" cy="4.53061" r="4.53061" fill="#090B10"/>
<circle cx="61.1632" cy="4.53061" r="4.53061" fill="#090B10"/>
<circle cx="72.4898" cy="4.53061" r="4.53061" fill="#090B10"/>
<circle cx="83.8163" cy="4.53061" r="4.53061" fill="#090B10"/>
<circle cx="95.1429" cy="4.53061" r="4.53061" fill="#090B10"/>
<circle cx="106.469" cy="4.53061" r="4.53061" fill="#090B10"/>
<circle cx="117.796" cy="4.53061" r="4.53061" fill="#090B10"/>
<circle cx="129.122" cy="4.53061" r="4.53061" fill="#090B10"/>
<circle cx="4.53061" cy="17.5918" r="4.53061" fill="#090B10"/>
<circle cx="15.8572" cy="17.5918" r="4.53061" fill="#090B10"/>
<circle cx="27.1837" cy="17.5918" r="4.53061" fill="#090B10"/>
<circle cx="38.5102" cy="17.5918" r="4.53061" fill="#090B10"/>
<circle cx="49.8368" cy="17.5918" r="4.53061" fill="#090B10"/>
<circle cx="61.1632" cy="17.5918" r="4.53061" fill="#090B10"/>
<circle cx="72.4898" cy="17.5918" r="4.53061" fill="#090B10"/>
<circle cx="83.8163" cy="17.5918" r="4.53061" fill="#090B10"/>
<circle cx="95.1429" cy="17.5918" r="4.53061" fill="#090B10"/>
<circle cx="106.469" cy="17.5918" r="4.53061" fill="#090B10"/>
<circle cx="117.796" cy="17.5918" r="4.53061" fill="#090B10"/>
<circle cx="129.122" cy="17.5918" r="4.53061" fill="#090B10"/>
<circle cx="4.53061" cy="30.653" r="4.53061" fill="#090B10"/>
<circle cx="15.8572" cy="30.653" r="4.53061" fill="#090B10"/>
<circle cx="27.1837" cy="30.653" r="4.53061" fill="#090B10"/>
<circle cx="38.5102" cy="30.653" r="4.53061" fill="#090B10"/>
<circle cx="49.8368" cy="30.653" r="4.53061" fill="#090B10"/>
<circle cx="61.1632" cy="30.653" r="4.53061" fill="#090B10"/>
<circle cx="72.4898" cy="30.653" r="4.53061" fill="#090B10"/>
<circle cx="83.8163" cy="30.653" r="4.53061" fill="#090B10"/>
<circle cx="95.1429" cy="30.653" r="4.53061" fill="#090B10"/>
<circle cx="106.469" cy="30.653" r="4.53061" fill="#090B10"/>
<circle cx="117.796" cy="30.653" r="4.53061" fill="#090B10"/>
<circle cx="129.122" cy="30.653" r="4.53061" fill="#090B10"/>
<circle cx="4.53061" cy="43.7143" r="4.53061" fill="#090B10"/>
<circle cx="15.8572" cy="43.7143" r="4.53061" fill="#090B10"/>
<circle cx="27.1837" cy="43.7143" r="4.53061" fill="#090B10"/>
<circle cx="38.5102" cy="43.7143" r="4.53061" fill="#090B10"/>
<circle cx="49.8368" cy="43.7143" r="4.53061" fill="#090B10"/>
<circle cx="61.1632" cy="43.7143" r="4.53061" fill="#090B10"/>
<circle cx="72.4898" cy="43.7143" r="4.53061" fill="#090B10"/>
<circle cx="83.8163" cy="43.7143" r="4.53061" fill="#090B10"/>
<circle cx="95.1429" cy="43.7143" r="4.53061" fill="#090B10"/>
<circle cx="106.469" cy="43.7143" r="4.53061" fill="#090B10"/>
<circle cx="117.796" cy="43.7143" r="4.53061" fill="#090B10"/>
<circle cx="129.122" cy="43.7143" r="4.53061" fill="#090B10"/>
<circle cx="4.53061" cy="56.7755" r="4.53061" fill="#090B10"/>
<circle cx="15.8572" cy="56.7755" r="4.53061" fill="#090B10"/>
<circle cx="27.1837" cy="56.7755" r="4.53061" fill="#090B10"/>
<circle cx="38.5102" cy="56.7755" r="4.53061" fill="#090B10"/>
<circle cx="49.8368" cy="56.7755" r="4.53061" fill="#090B10"/>
<circle cx="61.1632" cy="56.7755" r="4.53061" fill="#090B10"/>
<circle cx="72.4898" cy="56.7755" r="4.53061" fill="#090B10"/>
<circle cx="83.8163" cy="56.7755" r="4.53061" fill="#090B10"/>
<circle cx="95.1429" cy="56.7755" r="4.53061" fill="#090B10"/>
<circle cx="106.469" cy="56.7755" r="4.53061" fill="#090B10"/>
<circle cx="117.796" cy="56.7755" r="4.53061" fill="#090B10"/>
<circle cx="129.122" cy="56.7755" r="4.53061" fill="#090B10"/>
<circle cx="4.53061" cy="69.8367" r="4.53061" fill="#090B10"/>
<circle cx="15.8572" cy="69.8367" r="4.53061" fill="#090B10"/>
<circle cx="27.1837" cy="69.8367" r="4.53061" fill="#090B10"/>
<circle cx="38.5102" cy="69.8367" r="4.53061" fill="#090B10"/>
<circle cx="49.8368" cy="69.8367" r="4.53061" fill="#090B10"/>
<circle cx="61.1632" cy="69.8367" r="4.53061" fill="#090B10"/>
<circle cx="72.4898" cy="69.8367" r="4.53061" fill="#090B10"/>
<circle cx="83.8163" cy="69.8367" r="4.53061" fill="#090B10"/>
<circle cx="95.1429" cy="69.8367" r="4.53061" fill="#090B10"/>
<circle cx="106.469" cy="69.8367" r="4.53061" fill="#090B10"/>
<circle cx="117.796" cy="69.8367" r="4.53061" fill="#090B10"/>
<circle cx="129.122" cy="69.8367" r="4.53061" fill="#090B10"/>
<circle cx="4.53061" cy="82.8979" r="4.53061" fill="#090B10"/>
<circle cx="15.8572" cy="82.8979" r="4.53061" fill="#090B10"/>
<circle cx="27.1837" cy="82.8979" r="4.53061" fill="#090B10"/>
<circle cx="38.5102" cy="82.8979" r="4.53061" fill="#090B10"/>
<circle cx="49.8368" cy="82.8979" r="4.53061" fill="#090B10"/>
<circle cx="61.1632" cy="82.8979" r="4.53061" fill="#090B10"/>
<circle cx="72.4898" cy="82.8979" r="4.53061" fill="#090B10"/>
<circle cx="83.8163" cy="82.8979" r="4.53061" fill="#090B10"/>
<circle cx="95.1429" cy="82.8979" r="4.53061" fill="#090B10"/>
<circle cx="106.469" cy="82.8979" r="4.53061" fill="#090B10"/>
<circle cx="117.796" cy="82.8979" r="4.53061" fill="#090B10"/>
<circle cx="129.122" cy="82.8979" r="4.53061" fill="#090B10"/>
<circle cx="4.53061" cy="95.9591" r="4.53061" fill="#090B10"/>
<circle cx="15.8572" cy="95.9591" r="4.53061" fill="#090B10"/>
<circle cx="27.1837" cy="95.9591" r="4.53061" fill="#090B10"/>
<circle cx="38.5102" cy="95.9591" r="4.53061" fill="#090B10"/>
<circle cx="49.8368" cy="95.9591" r="4.53061" fill="#090B10"/>
<circle cx="61.1632" cy="95.9591" r="4.53061" fill="#090B10"/>
<circle cx="72.4898" cy="95.9591" r="4.53061" fill="#090B10"/>
<circle cx="83.8163" cy="95.9591" r="4.53061" fill="#090B10"/>
<circle cx="95.1429" cy="95.9591" r="4.53061" fill="#090B10"/>
<circle cx="106.469" cy="95.9591" r="4.53061" fill="#090B10"/>
<circle cx="117.796" cy="95.9591" r="4.53061" fill="#090B10"/>
<circle cx="129.122" cy="95.9591" r="4.53061" fill="#090B10"/>
<circle cx="4.53061" cy="109.02" r="4.53061" fill="#090B10"/>
<circle cx="15.8572" cy="109.02" r="4.53061" fill="#090B10"/>
<circle cx="27.1837" cy="109.02" r="4.53061" fill="#090B10"/>
<circle cx="38.5102" cy="109.02" r="4.53061" fill="#090B10"/>
<circle cx="49.8368" cy="109.02" r="4.53061" fill="#090B10"/>
<circle cx="61.1632" cy="109.02" r="4.53061" fill="#090B10"/>
<circle cx="72.4898" cy="109.02" r="4.53061" fill="#090B10"/>
<circle cx="83.8163" cy="109.02" r="4.53061" fill="#090B10"/>
<circle cx="95.1429" cy="109.02" r="4.53061" fill="#090B10"/>
<circle cx="106.469" cy="109.02" r="4.53061" fill="#090B10"/>
<circle cx="117.796" cy="109.02" r="4.53061" fill="#090B10"/>
<circle cx="129.122" cy="109.02" r="4.53061" fill="#090B10"/>
<circle cx="4.53061" cy="122.082" r="4.53061" fill="#090B10"/>
<circle cx="15.8572" cy="122.082" r="4.53061" fill="#090B10"/>
<circle cx="27.1837" cy="122.082" r="4.53061" fill="#090B10"/>
<circle cx="38.5102" cy="122.082" r="4.53061" fill="#090B10"/>
<circle cx="49.8368" cy="122.082" r="4.53061" fill="#090B10"/>
<circle cx="61.1632" cy="122.082" r="4.53061" fill="#090B10"/>
<circle cx="72.4898" cy="122.082" r="4.53061" fill="#090B10"/>
<circle cx="83.8163" cy="122.082" r="4.53061" fill="#090B10"/>
<circle cx="95.1429" cy="122.082" r="4.53061" fill="#090B10"/>
<circle cx="106.469" cy="122.082" r="4.53061" fill="#090B10"/>
<circle cx="117.796" cy="122.082" r="4.53061" fill="#090B10"/>
<circle cx="129.122" cy="122.082" r="4.53061" fill="#090B10"/>
</svg>
